<svg width="37" height="37" viewBox="0 0 37 37" fill="none" xmlns="http://www.w3.org/2000/svg">
<path d="M11.3887 18.6567C11.3887 22.5455 14.5412 25.6981 18.4301 25.6981C22.3189 25.6981 25.4714 22.5455 25.4714 18.6567C25.4714 14.7678 22.3189 11.6152 18.4301 11.6152C14.5412 11.6152 11.3887 14.7678 11.3887 18.6567Z" stroke="#242424" stroke-width="3.35306" stroke-linecap="round" stroke-linejoin="round"/>
<path d="M25.4714 18.6566V21.0037C25.4714 23.5963 27.5731 25.6979 30.1658 25.6979C31.8311 25.6979 33.2941 24.8308 34.1272 23.5231C34.5913 22.7953 34.86 21.9309 34.86 21.0037V18.6566C34.86 9.58253 27.5041 2.22656 18.43 2.22656C9.35597 2.22656 2 9.58253 2 18.6566C2 27.7307 9.35597 35.0866 18.43 35.0866C21.9208 35.0866 25.1574 33.998 27.8187 32.1416" stroke="#242424" stroke-width="3.35306" stroke-linecap="round" stroke-linejoin="round"/>
</svg>
