<svg width="52" height="43" viewBox="0 0 52 43" fill="none" xmlns="http://www.w3.org/2000/svg">
<path d="M36.7028 36.7028C33.696 39.7096 29.865 41.7573 25.6944 42.5869C21.5239 43.4165 17.2009 42.9907 13.2723 41.3634C9.3437 39.7361 5.98585 36.9804 3.6234 33.4448C1.26095 29.9091 2.61894e-07 25.7523 0 21.5C-2.61894e-07 17.2477 1.26095 13.0909 3.6234 9.55524C5.98585 6.01958 9.34369 3.26388 13.2723 1.63659C17.2009 0.00930644 21.5238 -0.416466 25.6944 0.413116C29.865 1.2427 33.696 3.29037 36.7028 6.2972L31.5149 11.4851C29.5342 9.50428 27.0105 8.15536 24.2631 7.60887C21.5157 7.06237 18.6679 7.34285 16.0799 8.41484C13.4919 9.48682 11.2799 11.3022 9.72367 13.6313C8.16739 15.9604 7.33672 18.6988 7.33672 21.5C7.33672 24.3012 8.16739 27.0396 9.72367 29.3687C11.2799 31.6978 13.4919 33.5132 16.0799 34.5852C18.6679 35.6571 21.5157 35.9376 24.2631 35.3911C27.0105 34.8446 29.5342 33.4957 31.5149 31.5149L36.7028 36.7028Z" fill="#002CFF"/>
<rect x="25.5312" y="18.1879" width="18.8125" height="6.71875" fill="#002CFF"/>
<rect x="44.3501" y="0.719116" width="6.71244" height="42.1925" fill="#002CFF"/>
</svg>
