<svg width="43" height="44" viewBox="0 0 43 44" fill="none" xmlns="http://www.w3.org/2000/svg">
<path d="M21.3125 0.5C15.5288 0.5 14.8015 0.526641 12.5291 0.627875C10.2566 0.734437 8.70882 1.09142 7.35281 1.61891C5.93045 2.1539 4.64211 2.9931 3.57784 4.07784C2.49377 5.14265 1.65467 6.43084 1.11891 7.85281C0.591422 9.20616 0.231773 10.7566 0.127875 13.0211C0.0266406 15.2989 0 16.0235 0 21.8152C0 27.6015 0.0266406 28.3261 0.127875 30.5986C0.234437 32.8684 0.591422 34.4162 1.11891 35.7722C1.66504 37.1735 2.39233 38.3617 3.57784 39.5472C4.76068 40.7327 5.94885 41.4626 7.35015 42.0061C8.70882 42.5336 10.254 42.8932 12.5238 42.9971C14.7989 43.0984 15.5235 43.125 21.3125 43.125C27.1015 43.125 27.8235 43.0984 30.0986 42.9971C32.3657 42.8906 33.9188 42.5336 35.2749 42.0061C36.6963 41.4708 37.9837 40.6316 39.0472 39.5472C40.2327 38.3617 40.96 37.1735 41.5061 35.7722C42.0309 34.4162 42.3906 32.8684 42.4971 30.5986C42.5984 28.3261 42.625 27.6015 42.625 21.8125C42.625 16.0235 42.5984 15.2989 42.4971 13.0238C42.3906 10.7566 42.0309 9.20616 41.5061 7.85281C40.9704 6.4308 40.1313 5.1426 39.0472 4.07784C37.9832 2.9927 36.6948 2.15344 35.2722 1.61891C33.9135 1.09142 32.363 0.731773 30.0959 0.627875C27.8208 0.526641 27.0988 0.5 21.3072 0.5H21.3152H21.3125ZM19.4024 4.34158H21.3152C27.0056 4.34158 27.6796 4.36023 29.9254 4.46413C32.0034 4.55737 33.1329 4.90636 33.8842 5.19674C34.8779 5.58303 35.5892 6.04658 36.3351 6.79252C37.0811 7.53845 37.542 8.24709 37.9283 9.24345C38.2213 9.99205 38.5676 11.1216 38.6609 13.1996C38.7648 15.4454 38.7861 16.1194 38.7861 21.8072C38.7861 27.4949 38.7648 28.1716 38.6609 30.4174C38.5676 32.4954 38.2186 33.6223 37.9283 34.3736C37.5866 35.2989 37.0412 36.1357 36.3325 36.8218C35.5865 37.5678 34.8779 38.0286 33.8815 38.4149C33.1356 38.708 32.006 39.0543 29.9254 39.1502C27.6796 39.2515 27.0056 39.2754 21.3152 39.2754C15.6247 39.2754 14.9481 39.2515 12.7023 39.1502C10.6243 39.0543 9.49738 38.708 8.74612 38.4149C7.82035 38.0737 6.98284 37.5293 6.29518 36.8218C5.58588 36.1346 5.03967 35.2971 4.69674 34.3709C4.40636 33.6223 4.05737 32.4927 3.96413 30.4148C3.86289 28.169 3.84158 27.4949 3.84158 21.8018C3.84158 16.1114 3.86289 15.4401 3.96413 13.1943C4.06003 11.1163 4.40636 9.98673 4.69941 9.23546C5.0857 8.24177 5.54924 7.53046 6.29518 6.78452C7.04112 6.03859 7.74976 5.5777 8.74612 5.19141C9.49738 4.89837 10.6243 4.55204 12.7023 4.45613C14.6683 4.36555 15.4303 4.33891 19.4024 4.33625V4.34158ZM32.6907 7.87945C32.3549 7.87945 32.0223 7.94561 31.712 8.07413C31.4017 8.20266 31.1198 8.39104 30.8823 8.62853C30.6448 8.86601 30.4564 9.14795 30.3279 9.45824C30.1994 9.76853 30.1332 10.1011 30.1332 10.437C30.1332 10.7728 30.1994 11.1054 30.3279 11.4157C30.4564 11.726 30.6448 12.0079 30.8823 12.2454C31.1198 12.4829 31.4017 12.6712 31.712 12.7998C32.0223 12.9283 32.3549 12.9945 32.6907 12.9945C33.369 12.9945 34.0195 12.725 34.4991 12.2454C34.9788 11.7658 35.2482 11.1152 35.2482 10.437C35.2482 9.75866 34.9788 9.10815 34.4991 8.62853C34.0195 8.1489 33.369 7.87945 32.6907 7.87945ZM21.3152 10.8685C19.8634 10.8459 18.4217 11.1123 17.0739 11.6521C15.7261 12.192 14.4992 12.9946 13.4646 14.0133C12.4299 15.0319 11.6083 16.2461 11.0474 17.5853C10.4866 18.9245 10.1978 20.3619 10.1978 21.8138C10.1978 23.2657 10.4866 24.7031 11.0474 26.0423C11.6083 27.3815 12.4299 28.5958 13.4646 29.6144C14.4992 30.633 15.7261 31.4356 17.0739 31.9755C18.4217 32.5154 19.8634 32.7818 21.3152 32.7591C24.1885 32.7143 26.9289 31.5414 28.945 29.4937C30.961 27.4459 32.091 24.6875 32.091 21.8138C32.091 18.9402 30.961 16.1818 28.945 14.134C26.9289 12.0862 24.1885 10.9134 21.3152 10.8685ZM21.3152 14.7074C23.1995 14.7074 25.0067 15.456 26.3392 16.7885C27.6717 18.1209 28.4202 19.9281 28.4202 21.8125C28.4202 23.6969 27.6717 25.5041 26.3392 26.8365C25.0067 28.169 23.1995 28.9176 21.3152 28.9176C19.4308 28.9176 17.6236 28.169 16.2911 26.8365C14.9587 25.5041 14.2101 23.6969 14.2101 21.8125C14.2101 19.9281 14.9587 18.1209 16.2911 16.7885C17.6236 15.456 19.4308 14.7074 21.3152 14.7074Z" fill="#002CFF"/>
</svg>
