<svg width="33" height="39" viewBox="0 0 33 39" fill="none" xmlns="http://www.w3.org/2000/svg">
<path d="M27.8532 31.1865C29.2427 29.1932 31.3335 27.0113 31.1801 24.4379C30.9213 20.0964 31.0108 18.656 29.5016 14.5612C27.8743 10.1464 25.5184 7.14786 21.6936 4.4325C18.6985 2.30611 14.5333 1.72532 10.9394 2.15567C9.10426 2.37543 6.48856 2.58863 5.16657 4.02541C3.58423 5.74515 2.62267 8.53497 2.06824 10.7483C1.12831 14.5006 1.07527 18.6243 1.44656 22.4572C1.73213 25.4052 2.98212 27.8407 4.63586 30.2581C7.01327 33.7334 11.2617 36.3218 15.376 37.173C20.2667 38.1849 25.2015 34.9907 27.8532 31.1865Z" stroke="#002CFF" stroke-width="2.34453" stroke-linecap="round"/>
</svg>
