<svg width="47" height="42" viewBox="0 0 47 42" fill="none" xmlns="http://www.w3.org/2000/svg">
<path fill-rule="evenodd" clip-rule="evenodd" d="M10.415 25.554C10.5135 25.5868 10.6147 25.6106 10.7175 25.625C11.3659 27.1528 12.0106 28.6821 12.6517 30.2129C13.8044 32.9675 14.9662 35.8046 15.2206 36.6204C15.5392 37.6242 15.8737 38.3071 16.2404 38.7746C16.4306 39.0129 16.6483 39.2238 16.905 39.3842C17.0387 39.4678 17.1818 39.5355 17.3312 39.5859C18.0646 39.8609 18.7337 39.7463 19.1531 39.6065C19.3992 39.5225 19.6334 39.4069 19.8498 39.2627L19.8612 39.2581L26.3375 35.2202L33.8198 40.954C33.9298 41.0388 34.049 41.1098 34.1773 41.1671C35.0756 41.5567 35.9465 41.6942 36.7669 41.5842C37.5827 41.4696 38.2312 41.1281 38.7148 40.7409C39.27 40.2933 39.7127 39.722 40.0073 39.0725L40.0279 39.0221L40.0348 39.0038L40.0394 38.9946V38.99L40.0417 38.9877C40.0815 38.8892 40.1122 38.7871 40.1333 38.6829L46.9625 4.25065C46.9841 4.14043 46.9948 4.02837 46.9946 3.91606C46.9946 2.90773 46.6142 1.94752 45.7227 1.36773C44.9573 0.870439 44.1071 0.847522 43.5685 0.888772C42.991 0.934605 42.4548 1.07669 42.095 1.19127C41.8936 1.25511 41.6948 1.32697 41.4992 1.40669L41.474 1.41815L3.17104 16.4423L3.16645 16.4446C3.03686 16.4923 2.90919 16.545 2.78374 16.6027C2.48001 16.7393 2.18865 16.9018 1.91291 17.0886C1.3927 17.4438 0.19416 18.42 0.398118 20.0334C0.558535 21.3167 1.43853 22.1073 1.97708 22.4877C2.27041 22.6963 2.54999 22.8452 2.75624 22.9438C2.84791 22.9896 3.04499 23.0675 3.12979 23.1042L3.1527 23.1111L10.415 25.554ZM42.8146 4.58065H42.81C42.7903 4.58941 42.7704 4.59781 42.7504 4.60586L4.40166 19.6506C4.38193 19.6586 4.36207 19.6663 4.34208 19.6736L4.31916 19.6804C4.24911 19.708 4.18029 19.7386 4.11291 19.7721C4.17669 19.8086 4.24249 19.8415 4.30999 19.8706L11.5104 22.2952C11.6391 22.3386 11.7622 22.3971 11.8771 22.4694L35.6577 8.54752L35.6806 8.53606C35.773 8.47993 35.8678 8.42793 35.9648 8.38023C36.1298 8.29544 36.3933 8.17169 36.6912 8.08002C36.8975 8.01586 37.5094 7.83481 38.1694 8.04794C38.5194 8.15828 38.8314 8.36485 39.0697 8.64405C39.308 8.92325 39.4629 9.26383 39.5169 9.6269C39.6022 9.94487 39.6046 10.2794 39.5237 10.5986C39.3633 11.2288 38.9233 11.7192 38.52 12.095C38.1762 12.4159 33.719 16.715 29.3212 20.9592L23.3331 26.7342L22.2675 27.7654L35.7242 38.0825C35.9058 38.1588 36.1031 38.1902 36.2994 38.1742C36.3983 38.1608 36.4913 38.1194 36.5675 38.055C36.6604 37.9766 36.7401 37.8837 36.8035 37.78L36.8081 37.7777L43.431 4.38127C43.2224 4.43145 43.0179 4.49734 42.8192 4.57836L42.8146 4.58065ZM23.4248 32.9836L20.739 30.9256L20.0881 35.0621L23.4248 32.9836ZM18.2754 26.8419L20.9452 24.2638L26.9333 18.4842L29.1631 16.3346L14.2215 25.0819L14.3017 25.2698C15.244 27.496 16.176 29.7266 17.0975 31.9615L17.746 27.8365C17.8047 27.4539 17.9913 27.1048 18.2754 26.8419Z" fill="#002CFF"/>
</svg>
