<svg width="37" height="33" viewBox="0 0 37 33" fill="none" xmlns="http://www.w3.org/2000/svg">
<path fill-rule="evenodd" clip-rule="evenodd" d="M8.14064 19.5855C8.21802 19.6113 8.29758 19.63 8.37834 19.6413C8.88781 20.8418 9.39442 22.0435 9.89816 23.2464C10.8039 25.4109 11.7169 27.6402 11.9168 28.2812C12.1671 29.07 12.43 29.6066 12.7181 29.9739C12.8676 30.1612 13.0386 30.3269 13.2403 30.4529C13.3454 30.5187 13.4578 30.5719 13.5753 30.6114C14.1515 30.8275 14.6773 30.7374 15.0068 30.6276C15.2002 30.5616 15.3842 30.4708 15.5543 30.3575L15.5633 30.3539L20.6522 27.181L26.5316 31.6864C26.618 31.7531 26.7116 31.8089 26.8125 31.8539C27.5184 32.16 28.2026 32.2681 28.8473 32.1816C29.4884 32.0916 29.998 31.8233 30.3779 31.519C30.8142 31.1673 31.162 30.7183 31.3935 30.208L31.4097 30.1684L31.4151 30.154L31.4188 30.1468V30.1432L31.4205 30.1414C31.4519 30.0639 31.476 29.9838 31.4926 29.9019L36.8588 2.84586C36.8757 2.75925 36.8842 2.6712 36.884 2.58295C36.884 1.79063 36.5851 1.03612 35.8846 0.580535C35.2831 0.189775 34.6151 0.171768 34.1919 0.204181C33.7381 0.240196 33.3167 0.351841 33.034 0.441878C32.8758 0.492037 32.7196 0.548505 32.5658 0.611147L32.546 0.620151L2.44852 12.4258L2.44492 12.4276C2.34309 12.465 2.24277 12.5065 2.1442 12.5518C1.90553 12.6591 1.67659 12.7869 1.45992 12.9336C1.05115 13.2127 0.109365 13.9798 0.269631 15.2475C0.395682 16.2559 1.08716 16.8772 1.51034 17.1761C1.74083 17.34 1.96052 17.457 2.12259 17.5345C2.19462 17.5705 2.34948 17.6317 2.41611 17.6605L2.43411 17.6659L8.14064 19.5855ZM33.5994 3.10517H33.5958C33.5804 3.11205 33.5647 3.11865 33.549 3.12497L3.41552 14.9468C3.40001 14.9531 3.3844 14.9591 3.3687 14.9648L3.35069 14.9702C3.29564 14.9918 3.24157 15.0159 3.18862 15.0422C3.23874 15.0709 3.29045 15.0968 3.34349 15.1197L9.0014 17.0248C9.1025 17.0589 9.19922 17.1049 9.28951 17.1617L27.9757 6.22224L27.9938 6.21323C28.0663 6.16913 28.1408 6.12827 28.217 6.09078C28.3467 6.02416 28.5538 5.92692 28.7879 5.85489C28.9499 5.80447 29.4307 5.66221 29.9494 5.82968C30.2244 5.91638 30.4696 6.0787 30.6568 6.29809C30.844 6.51748 30.9658 6.7851 31.0082 7.07038C31.0752 7.32024 31.0771 7.58312 31.0136 7.8339C30.8875 8.3291 30.5418 8.71446 30.2249 9.00978C29.9548 9.26188 26.4523 12.6401 22.9967 15.975L18.2914 20.5129L17.454 21.3232L28.028 29.4301C28.1707 29.49 28.3257 29.5147 28.4799 29.5021C28.5577 29.4916 28.6307 29.4591 28.6906 29.4085C28.7636 29.3469 28.8263 29.2739 28.8761 29.1924L28.8797 29.1906L34.0838 2.9485C33.9199 2.98793 33.7592 3.0397 33.603 3.10336L33.5994 3.10517ZM18.3634 25.4235L16.253 23.8064L15.7415 27.0567L18.3634 25.4235ZM14.3172 20.5975L16.415 18.5717L21.1203 14.0302L22.8725 12.3411L11.1317 19.2145L11.1947 19.3622C11.9352 21.1115 12.6675 22.8642 13.3916 24.6203L13.9012 21.379C13.9473 21.0784 14.0939 20.8041 14.3172 20.5975Z" fill="#242424"/>
</svg>
