<svg width="36" height="36" viewBox="0 0 36 36" fill="none" xmlns="http://www.w3.org/2000/svg">
<path d="M27.9271 21.2429L22.5249 18.5417C22.3122 18.4358 22.0754 18.3878 21.8383 18.4026C21.6012 18.4174 21.3721 18.4945 21.1743 18.6262L18.6944 20.2806C17.556 19.6548 16.6191 18.7179 15.9933 17.5795L17.6477 15.0995C17.7793 14.9017 17.8564 14.6727 17.8713 14.4356C17.8861 14.1985 17.8381 13.9616 17.7321 13.749L15.031 8.34678C14.9191 8.12068 14.746 7.93046 14.5315 7.79768C14.3169 7.66491 14.0695 7.59488 13.8172 7.59553C12.0263 7.59553 10.3087 8.30698 9.04229 9.57337C7.7759 10.8398 7.06445 12.5573 7.06445 14.3483C7.06892 18.287 8.63554 22.0631 11.4206 24.8482C14.2057 27.6333 17.9818 29.1999 21.9205 29.2044C22.8073 29.2044 23.6854 29.0297 24.5047 28.6903C25.324 28.351 26.0684 27.8536 26.6954 27.2265C27.3225 26.5995 27.8199 25.855 28.1593 25.0358C28.4986 24.2165 28.6733 23.3384 28.6733 22.4516C28.6735 22.2007 28.6037 21.9547 28.4719 21.7412C28.3401 21.5277 28.1515 21.3551 27.9271 21.2429ZM21.9205 26.5033C18.6979 26.4997 15.6083 25.2179 13.3296 22.9392C11.0509 20.6605 9.76913 17.5709 9.76555 14.3483C9.76529 13.4115 10.0896 12.5036 10.6834 11.7791C11.2771 11.0546 12.1035 10.5581 13.0221 10.3743L14.9601 14.2571L13.3108 16.7118C13.1875 16.8966 13.1118 17.1091 13.0903 17.3302C13.0688 17.5514 13.1022 17.7744 13.1875 17.9796C14.1538 20.2762 15.9808 22.1032 18.2774 23.0695C18.4832 23.1586 18.7079 23.1951 18.9313 23.1756C19.1547 23.1562 19.3698 23.0814 19.5571 22.9581L22.0235 21.3138L25.9063 23.2518C25.7211 24.1714 25.2225 24.9982 24.4956 25.5912C23.7687 26.1841 22.8586 26.5065 21.9205 26.5033ZM17.8689 0.842774C14.8377 0.842112 11.8579 1.62624 9.21968 3.11884C6.58144 4.61144 4.37457 6.76165 2.81388 9.3602C1.25319 11.9587 0.391851 14.9171 0.313699 17.9473C0.235547 20.9775 0.943244 23.9763 2.36791 26.6518L0.451813 32.4001C0.293098 32.876 0.270064 33.3867 0.385295 33.875C0.500526 34.3633 0.749467 34.8098 1.10422 35.1646C1.45897 35.5193 1.9055 35.7683 2.39378 35.8835C2.88206 35.9987 3.39278 35.9757 3.86871 35.817L9.61699 33.9009C11.9716 35.1533 14.5806 35.8528 17.246 35.9463C19.9113 36.0398 22.5629 35.5249 24.9995 34.4407C27.4362 33.3564 29.5938 31.7313 31.3085 29.6887C33.0233 27.646 34.2502 25.2396 34.8961 22.652C35.5421 20.0645 35.59 17.3637 35.0363 14.7549C34.4826 12.146 33.3418 9.69756 31.7006 7.59539C30.0593 5.49322 27.9608 3.79258 25.5641 2.62255C23.1675 1.45253 20.5358 0.843868 17.8689 0.842774ZM17.8689 33.256C15.2572 33.2578 12.6913 32.57 10.4307 31.2623C10.2652 31.1663 10.0812 31.1066 9.89082 31.0871C9.70048 31.0676 9.50817 31.0887 9.32662 31.1491L3.0128 33.256L5.11797 26.9422C5.17865 26.7608 5.2001 26.5685 5.18089 26.3782C5.16168 26.1878 5.10226 26.0037 5.00655 25.8381C3.36896 23.0069 2.71147 19.7143 3.13608 16.4713C3.5607 13.2282 5.04368 10.216 7.35497 7.90176C9.66626 5.58754 12.6767 4.10076 15.9192 3.67205C19.1617 3.24334 22.455 3.89667 25.2883 5.53068C28.1216 7.16469 30.3365 9.68806 31.5894 12.7093C32.8422 15.7306 33.063 19.0808 32.2175 22.2404C31.372 25.3999 29.5074 28.1921 26.9131 30.1839C24.3187 32.1756 21.1396 33.2555 17.8689 33.256Z" fill="#242424"/>
</svg>
